#N canvas 684 421 1002 553 10;
#X obj 29 393 dac~;
#N canvas 591 50 1130 375 GUI_input 0;
#X obj 19 16 receive fromGUI;
#X obj 19 44 route list;
#X obj 215 124 s tempo;
#X obj 116 126 s drumGrid;
#X obj 12 125 s noteGrid;
#X obj 352 126 s rootNote;
#X obj 280 125 s octave;
#X obj 439 127 s timbre;
#X obj 19 70 route /noteGrid /drumGrid /tempoSlider /octaveSlider /rootNoteSlider
/timbreGrid;
#X obj 492 55 route /noteSlider0 /noteSlider1 /noteSlider2 /noteSlider3
/noteSlider4 /noteSlider5 /noteSlider6 /noteSlider7;
#X obj 554 153 s f0;
#X obj 589 153 s f1;
#X obj 624 153 s f2;
#X obj 659 153 s f3;
#X obj 694 153 s f4;
#X obj 729 153 s f5;
#X obj 764 153 s f6;
#X obj 799 153 s f7;
#X obj 479 211 route /play0 /play1 /play2 /play3 /play4 /play5 /play6
/play7;
#X obj 474 303 s p0;
#X obj 509 303 s p1;
#X obj 544 303 s p2;
#X obj 579 303 s p3;
#X obj 614 303 s p4;
#X obj 649 303 s p5;
#X obj 684 303 s p6;
#X obj 719 303 s p7;
#X connect 0 0 1 0;
#X connect 1 0 8 0;
#X connect 1 0 9 0;
#X connect 1 0 18 0;
#X connect 8 0 4 0;
#X connect 8 1 3 0;
#X connect 8 2 2 0;
#X connect 8 3 6 0;
#X connect 8 4 5 0;
#X connect 8 5 7 0;
#X connect 9 0 10 0;
#X connect 9 1 11 0;
#X connect 9 2 12 0;
#X connect 9 3 13 0;
#X connect 9 4 14 0;
#X connect 9 5 15 0;
#X connect 9 6 16 0;
#X connect 9 7 17 0;
#X connect 18 0 19 0;
#X connect 18 1 20 0;
#X connect 18 2 21 0;
#X connect 18 3 22 0;
#X connect 18 4 23 0;
#X connect 18 5 24 0;
#X connect 18 6 25 0;
#X connect 18 7 26 0;
#X restore 24 40 pd GUI_input;
#N canvas 1118 312 577 439 GUI_output 0;
#X msg 37 166 list /beatSlider \$1;
#X obj 38 295 s toGUI;
#X obj 39 39 r t_raw;
#X obj 61 85 bng 15 250 50 0 empty empty empty 17 7 0 10 -262144 -1
-1;
#X obj 132 76 r f0;
#X obj 167 76 r f1;
#X obj 202 76 r f2;
#X obj 237 76 r f3;
#X obj 272 76 r f4;
#X obj 307 76 r f5;
#X obj 342 76 r f6;
#X obj 377 76 r f7;
#X msg 131 113 list /debug0 \$1;
#X msg 171 133 list /debug1 \$1;
#X msg 211 153 list /debug2 \$1;
#X msg 251 173 list /debug3 \$1;
#X msg 276 193 list /debug4 \$1;
#X msg 321 213 list /debug5 \$1;
#X msg 361 233 list /debug6 \$1;
#X msg 401 253 list /debug7 \$1;
#X connect 0 0 1 0;
#X connect 2 0 0 0;
#X connect 2 0 3 0;
#X connect 4 0 12 0;
#X connect 5 0 13 0;
#X connect 6 0 14 0;
#X connect 7 0 15 0;
#X connect 8 0 16 0;
#X connect 9 0 17 0;
#X connect 10 0 18 0;
#X connect 11 0 19 0;
#X connect 12 0 1 0;
#X connect 13 0 1 0;
#X connect 14 0 1 0;
#X connect 15 0 1 0;
#X connect 16 0 1 0;
#X connect 17 0 1 0;
#X connect 18 0 1 0;
#X connect 19 0 1 0;
#X restore 191 125 pd GUI_output;
#N canvas 304 286 318 354 sound_generation 0;
#X obj 40 156 outlet~;
#X obj 40 94 inlet;
#N canvas 1076 214 618 508 stringSound 0;
#X obj 33 161 inlet;
#X obj 34 352 outlet~;
#N canvas 146 184 821 426 karpluck~ 0;
#X obj -38 2 inlet midi_note;
#X obj 44 90 inlet width;
#X obj 77 176 inlet decay;
#X obj 156 176 inlet cutoff;
#X obj -37 286 outlet~;
#N canvas 353 578 194 221 excitation~ 0;
#X obj 31 18 inlet midi_note;
#X obj 101 39 inlet width;
#X obj 30 120 vline~;
#X obj 100 123 noise~;
#X obj 30 154 *~;
#X obj 30 181 outlet~;
#X obj 30 44 bang;
#X obj 74 69 del 5;
#X msg 30 87 1 1;
#X msg 74 90 0 1;
#X connect 0 0 6 0;
#X connect 1 0 7 1;
#X connect 2 0 4 0;
#X connect 3 0 4 1;
#X connect 4 0 5 0;
#X connect 6 0 8 0;
#X connect 6 0 7 0;
#X connect 7 0 9 0;
#X connect 8 0 2 0;
#X connect 9 0 2 0;
#X restore -37 114 pd excitation~;
#N canvas 99 140 669 524 body~ 0;
#X obj 75 232 inlet~;
#X obj 221 274 outlet~;
#X obj 376 -12 block~ 1;
#X obj 75 270 delwrite~ \$0-dl 1000;
#X obj 99 131 delread~ \$0-dl 12;
#X obj 221 179 lop~ 4000;
#X obj 221 226 *~ 0.99;
#X obj 99 -22 mtof;
#X obj 99 8 t b f;
#X obj 99 69 /;
#X msg 92 43 1;
#X obj 99 99 * 1000;
#X obj 99 -55 inlet midi_note;
#X obj 260 202 inlet decay;
#X obj 272 154 inlet cutoff;
#X text 375 -55 Block size needs to be 1 sample for this subpatch to
ensure correct tuning and operation for delay line feedback;
#X text 151 70 Convert a midi note into the required delay line length
(in ms) to generate said pitch.;
#X connect 0 0 3 0;
#X connect 4 0 5 0;
#X connect 5 0 6 0;
#X connect 6 0 1 0;
#X connect 6 0 3 0;
#X connect 7 0 8 0;
#X connect 8 0 10 0;
#X connect 8 1 9 1;
#X connect 9 0 11 0;
#X connect 10 0 9 0;
#X connect 11 0 4 0;
#X connect 12 0 7 0;
#X connect 13 0 6 1;
#X connect 14 0 5 1;
#X restore -37 236 pd body~;
#X obj -38 26 s \$0-midi_note;
#X obj -37 71 r \$0-midi_note;
#X obj -22 162 r \$0-midi_note;
#X text 55 112 excitation generates a short noise burst the specied
width;
#X text 22 236 body filters the excitation noise in a pitch specific
delay line;
#X text -30 322 Source: http://blog.loomer.co.uk/2010/02/karplus-strong-guitar-string-synthesis.html
;
#X connect 0 0 7 0;
#X connect 1 0 5 1;
#X connect 2 0 6 2;
#X connect 3 0 6 3;
#X connect 5 0 6 0;
#X connect 6 0 4 0;
#X connect 8 0 5 0;
#X connect 9 0 6 1;
#X restore 33 293 pd karpluck~;
#X obj 34 323 *~ 0.25;
#X obj 186 199 loadbang;
#X msg 175 273 4000;
#X msg 78 217 20;
#X obj 93 244 0.999;
#X obj 75 192 r timbreWidth;
#X obj 170 247 r timbreCutoff;
#X text 31 125 The generated sound uses the Karplus–Strong string
synthesis algorithm;
#X connect 0 0 2 0;
#X connect 2 0 3 0;
#X connect 3 0 1 0;
#X connect 4 0 6 0;
#X connect 4 0 5 0;
#X connect 4 0 7 0;
#X connect 5 0 2 3;
#X connect 6 0 2 1;
#X connect 7 0 2 2;
#X connect 8 0 2 1;
#X connect 9 0 2 3;
#X restore 40 121 pd stringSound;
#X connect 1 0 2 0;
#X connect 2 0 0 0;
#X restore 24 211 pd sound_generation;
#N canvas 654 165 678 685 sequencer 0;
#X obj 39 306 outlet;
#X obj 40 224 f 0;
#X obj 114 224 f 0;
#X obj 188 224 f 0;
#X obj 262 224 f 0;
#X obj 336 224 f 0;
#X obj 410 224 f 0;
#X obj 484 224 f 0;
#X obj 558 224 f 0;
#X obj 40 164 r t0;
#X obj 58 204 r f0;
#X obj 40 184 spigot;
#X obj 79 164 r p0;
#X obj 114 184 spigot;
#X obj 188 184 spigot;
#X obj 262 184 spigot;
#X obj 336 184 spigot;
#X obj 410 184 spigot;
#X obj 484 184 spigot;
#X obj 558 184 spigot;
#X obj 114 164 r t1;
#X obj 153 164 r p1;
#X obj 132 204 r f1;
#X obj 188 164 r t2;
#X obj 227 164 r p2;
#X obj 206 204 r f2;
#X obj 262 164 r t3;
#X obj 301 164 r p3;
#X obj 280 204 r f3;
#X obj 336 164 r t4;
#X obj 375 164 r p4;
#X obj 354 204 r f4;
#X obj 410 164 r t5;
#X obj 449 164 r p5;
#X obj 428 204 r f5;
#X obj 484 164 r t6;
#X obj 523 164 r p6;
#X obj 502 204 r f6;
#X obj 558 164 r t7;
#X obj 597 164 r p7;
#X obj 576 204 r f7;
#X connect 1 0 0 0;
#X connect 2 0 0 0;
#X connect 3 0 0 0;
#X connect 4 0 0 0;
#X connect 5 0 0 0;
#X connect 6 0 0 0;
#X connect 7 0 0 0;
#X connect 8 0 0 0;
#X connect 9 0 11 0;
#X connect 10 0 1 1;
#X connect 11 0 1 0;
#X connect 12 0 11 1;
#X connect 13 0 2 0;
#X connect 14 0 3 0;
#X connect 15 0 4 0;
#X connect 16 0 5 0;
#X connect 17 0 6 0;
#X connect 18 0 7 0;
#X connect 19 0 8 0;
#X connect 20 0 13 0;
#X connect 21 0 13 1;
#X connect 22 0 2 1;
#X connect 23 0 14 0;
#X connect 24 0 14 1;
#X connect 25 0 3 1;
#X connect 26 0 15 0;
#X connect 27 0 15 1;
#X connect 28 0 4 1;
#X connect 29 0 16 0;
#X connect 30 0 16 1;
#X connect 31 0 5 1;
#X connect 32 0 17 0;
#X connect 33 0 17 1;
#X connect 34 0 6 1;
#X connect 35 0 18 0;
#X connect 36 0 18 1;
#X connect 37 0 7 1;
#X connect 38 0 19 0;
#X connect 39 0 19 1;
#X connect 40 0 8 1;
#X restore 23 72 pd sequencer;
#N canvas 497 388 450 441 tempo 0;
#X obj 99 176 snapshot~;
#X obj 178 148 metro 50;
#X obj 168 115 tgl 15 0 empty empty empty 17 7 0 10 -262144 -1 -1 0
1;
#X obj 192 109 loadbang;
#X obj 99 198 * 8;
#X obj 98 68 * 10;
#X obj 98 92 + 1;
#X obj 98 123 / 8;
#X obj 99 308 select 0 1 2 3 4 5 6 7;
#X obj 100 334 bng 15 250 50 0 empty empty empty 17 7 0 10 -262144
-1 -1;
#X obj 118 334 bng 15 250 50 0 empty empty empty 17 7 0 10 -262144
-1 -1;
#X obj 136 334 bng 15 250 50 0 empty empty empty 17 7 0 10 -262144
-1 -1;
#X obj 154 334 bng 15 250 50 0 empty empty empty 17 7 0 10 -262144
-1 -1;
#X obj 172 334 bng 15 250 50 0 empty empty empty 17 7 0 10 -262144
-1 -1;
#X obj 190 334 bng 15 250 50 0 empty empty empty 17 7 0 10 -262144
-1 -1;
#X obj 208 334 bng 15 250 50 0 empty empty empty 17 7 0 10 -262144
-1 -1;
#X obj 226 334 bng 15 250 50 0 empty empty empty 17 7 0 10 -262144
-1 -1;
#X obj 100 279 spigot;
#X obj 139 247 !=;
#X obj 182 246 f;
#X obj 100 250 f;
#X obj 99 224 int 1;
#X obj 182 200 loadbang;
#X obj 98 149 phasor~ 1;
#X obj 46 393 s t0;
#X obj 84 393 s t1;
#X obj 121 393 s t2;
#X obj 158 393 s t3;
#X obj 195 393 s t4;
#X obj 231 393 s t5;
#X obj 267 393 s t6;
#X obj 303 393 s t7;
#X obj 98 38 r tempo;
#X obj 25 335 s t_raw;
#X connect 0 0 4 0;
#X connect 1 0 0 0;
#X connect 2 0 1 0;
#X connect 3 0 1 0;
#X connect 4 0 21 0;
#X connect 5 0 6 0;
#X connect 6 0 7 0;
#X connect 7 0 23 0;
#X connect 8 0 9 0;
#X connect 8 1 10 0;
#X connect 8 2 11 0;
#X connect 8 3 12 0;
#X connect 8 4 13 0;
#X connect 8 5 14 0;
#X connect 8 6 15 0;
#X connect 8 7 16 0;
#X connect 9 0 24 0;
#X connect 10 0 25 0;
#X connect 11 0 26 0;
#X connect 12 0 27 0;
#X connect 13 0 28 0;
#X connect 14 0 29 0;
#X connect 15 0 30 0;
#X connect 16 0 31 0;
#X connect 17 0 19 0;
#X connect 17 0 8 0;
#X connect 17 0 33 0;
#X connect 18 0 17 1;
#X connect 19 0 18 1;
#X connect 20 0 18 0;
#X connect 20 0 17 0;
#X connect 21 0 20 0;
#X connect 22 0 21 0;
#X connect 23 0 0 0;
#X connect 32 0 5 0;
#X restore 135 72 pd tempo;
#N canvas 1015 50 667 897 drums 1;
#X obj 38 30 r drumGrid;
#N canvas 0 50 450 250 (subpatch) 0;
#X array drum2 8 float 3;
#A 0 0 0 0 0 0 0 0 0;
#X coords 0 1.5 8 -0.5 200 140 1 0 0;
#X restore 394 393 graph;
#X obj 38 65 unpack f f f;
#X obj 40 204 f;
#X obj 37 167 t b f;
#N canvas 0 50 450 250 (subpatch) 0;
#X array drum0 8 float 3;
#A 0 0 0 0 0 0 0 0 0;
#X coords 0 1.5 8 -0.5 200 140 1 0 0;
#X restore 390 69 graph;
#N canvas 0 50 450 250 (subpatch) 0;
#X array drum1 8 float 3;
#A 0 0 0 0 0 0 0 0 0;
#X coords 0 1.5 8 -0.5 200 140 1 0 0;
#X restore 391 228 graph;
#X obj 78 90 select 0 1 2;
#X obj 15 266 spigot;
#X obj 15 290 tabwrite drum0;
#X obj 126 291 tabwrite drum1;
#X obj 236 286 tabwrite drum2;
#X obj 80 122 bng 15 250 50 0 empty empty empty 17 7 0 10 -262144 -1
-1;
#X obj 109 124 bng 15 250 50 0 empty empty empty 17 7 0 10 -262144
-1 -1;
#X obj 135 125 bng 15 250 50 0 empty empty empty 17 7 0 10 -262144
-1 -1;
#X msg 84 165 0;
#X msg 114 190 1;
#X msg 124 165 0;
#X msg 154 190 1;
#X msg 164 165 0;
#X msg 194 190 1;
#X obj 125 264 spigot;
#X obj 235 258 spigot;
#X obj 30 428 tabread drum0;
#X obj 28 362 r t_raw;
#X floatatom 39 454 5 0 0 0 - - -, f 5;
#X obj 141 430 tabread drum1;
#X floatatom 150 456 5 0 0 0 - - -, f 5;
#X obj 264 428 tabread drum2;
#X floatatom 272 455 5 0 0 0 - - -, f 5;
#X obj 147 581 outlet bang;
#X obj 34 494 t f f;
#X obj 35 523 spigot;
#X obj 34 546 bng 15 250 50 0 empty empty empty 17 7 0 10 -262144 -1
-1;
#X obj 142 488 t f f;
#X obj 143 517 spigot;
#X obj 143 539 bng 15 250 50 0 empty empty empty 17 7 0 10 -262144
-1 -1;
#X obj 262 487 t f f;
#X obj 263 516 spigot;
#X obj 263 577 outlet bang;
#X obj 34 580 outlet bang;
#X obj 266 547 bng 15 250 50 0 empty empty empty 17 7 0 10 -262144
-1 -1;
#X connect 0 0 2 0;
#X connect 2 0 4 0;
#X connect 2 1 7 0;
#X connect 2 2 3 1;
#X connect 3 0 8 0;
#X connect 3 0 21 0;
#X connect 3 0 22 0;
#X connect 4 0 3 0;
#X connect 4 1 9 1;
#X connect 4 1 10 1;
#X connect 4 1 11 1;
#X connect 7 0 12 0;
#X connect 7 1 13 0;
#X connect 7 2 14 0;
#X connect 8 0 9 0;
#X connect 12 0 15 0;
#X connect 12 0 16 0;
#X connect 13 0 17 0;
#X connect 13 0 18 0;
#X connect 14 0 19 0;
#X connect 14 0 20 0;
#X connect 15 0 21 1;
#X connect 15 0 22 1;
#X connect 16 0 8 1;
#X connect 17 0 8 1;
#X connect 17 0 22 1;
#X connect 18 0 21 1;
#X connect 19 0 8 1;
#X connect 19 0 21 1;
#X connect 20 0 22 1;
#X connect 21 0 10 0;
#X connect 22 0 11 0;
#X connect 23 0 25 0;
#X connect 23 0 31 0;
#X connect 24 0 23 0;
#X connect 24 0 26 0;
#X connect 24 0 28 0;
#X connect 26 0 27 0;
#X connect 26 0 34 0;
#X connect 28 0 29 0;
#X connect 28 0 37 0;
#X connect 31 0 32 0;
#X connect 31 1 32 1;
#X connect 32 0 33 0;
#X connect 33 0 40 0;
#X connect 34 0 35 0;
#X connect 34 1 35 1;
#X connect 35 0 36 0;
#X connect 36 0 30 0;
#X connect 37 0 38 0;
#X connect 37 1 38 1;
#X connect 38 0 41 0;
#X connect 41 0 39 0;
#X restore 106 238 pd drums;
#N canvas 212 615 450 300 mixer 0;
#X obj 74 72 inlet~;
#X obj 162 76 inlet~;
#X obj 74 168 +~;
#X obj 74 201 outlet~;
#X obj 73 117 *~ 0.5;
#X obj 162 117 *~ 0.5;
#X connect 0 0 4 0;
#X connect 1 0 5 0;
#X connect 2 0 3 0;
#X connect 4 0 2 0;
#X connect 5 0 2 1;
#X restore 28 358 pd mixer;
#N canvas 737 341 1043 596 drumSample 0;
#X obj 80 49 inlet bang;
#X obj 155 77 inlet bang;
#X obj 212 104 inlet bang;
#X obj 77 214 outlet~;
#X obj 527 192 soundfiler;
#N canvas 0 50 450 250 (subpatch) 0;
#X array sample2 3667 float 0;
#X coords 0 1 3666 -1 200 140 1 0 0;
#X restore 665 299 graph;
#N canvas 0 50 450 250 (subpatch) 0;
#X array sample0 15272 float 0;
#X coords 0 1 15271 -1 200 140 1 0 0;
#X restore 216 301 graph;
#N canvas 0 50 450 250 (subpatch) 0;
#X array sample1 30078 float 0;
#X coords 0 1 30077 -1 200 140 1 0 0;
#X restore 444 303 graph;
#X obj 80 108 tabplay~ sample0;
#X obj 156 135 tabplay~ sample1;
#X obj 213 172 tabplay~ sample2;
#X obj 570 28 loadbang;
#X msg 558 100 read -resize sound27.wav sample1;
#X msg 576 129 read -resize sound19.wav sample2;
#X msg 525 61 read -resize sound7.wav sample0;
#X connect 0 0 8 0;
#X connect 1 0 9 0;
#X connect 2 0 10 0;
#X connect 8 0 3 0;
#X connect 9 0 3 0;
#X connect 10 0 3 0;
#X connect 11 0 14 0;
#X connect 11 0 12 0;
#X connect 11 0 13 0;
#X connect 12 0 4 0;
#X connect 13 0 4 0;
#X connect 14 0 4 0;
#X restore 89 275 pd drumSample;
#N canvas 0 50 450 300 speedlim 0;
#X msg 69 119 1;
#X obj 43 144 spigot 1;
#X obj 73 73 t b b;
#X msg 98 119 0;
#X obj 71 95 delay 200;
#X obj 46 29 inlet;
#X obj 45 193 outlet;
#X obj 140 29 inlet;
#X connect 0 0 1 1;
#X connect 1 0 2 0;
#X connect 1 0 6 0;
#X connect 2 0 4 0;
#X connect 2 1 3 0;
#X connect 3 0 1 1;
#X connect 4 0 0 0;
#X connect 5 0 1 0;
#X connect 7 0 4 1;
#X restore 208 209 pd speedlim;
#N canvas 782 326 450 527 noteMapping 0;
#X obj 52 54 inlet float;
#N canvas 425 359 297 233 addScaleOctave 0;
#X obj 87 123 * 12;
#X obj 85 55 inlet;
#X obj 86 150 outlet;
#X obj 85 79 / 7;
#X obj 85 101 int;
#X connect 0 0 2 0;
#X connect 1 0 3 0;
#X connect 3 0 4 0;
#X connect 4 0 0 0;
#X restore 84 184 pd addScaleOctave;
#X obj 51 238 +;
#X obj 84 206 t b f;
#N canvas 329 239 450 300 scaleGate 0;
#N canvas 130 224 343 341 minorScale 0;
#X msg 65 83 0;
#X msg 84 107 2;
#X msg 123 150 5;
#X msg 143 179 7;
#X obj 65 58 select 0 1 2 3 4 5 6;
#X obj 65 34 % 7;
#X obj 59 263 outlet;
#X obj 65 9 inlet;
#X msg 104 127 3;
#X msg 162 207 8;
#X msg 181 233 11;
#X connect 0 0 6 0;
#X connect 1 0 6 0;
#X connect 2 0 6 0;
#X connect 3 0 6 0;
#X connect 4 0 0 0;
#X connect 4 1 1 0;
#X connect 4 2 8 0;
#X connect 4 3 2 0;
#X connect 4 4 3 0;
#X connect 4 5 9 0;
#X connect 4 6 10 0;
#X connect 5 0 4 0;
#X connect 7 0 5 0;
#X connect 8 0 6 0;
#X connect 9 0 6 0;
#X connect 10 0 6 0;
#X restore 88 122 pd minorScale;
#N canvas 0 50 450 300 gate 0;
#X obj 95 55 inlet;
#X obj 109 137 spigot;
#X obj 174 58 inlet;
#X obj 247 60 inlet;
#X obj 195 136 spigot;
#X obj 161 187 outlet;
#X obj 300 86 loadbang;
#X msg 297 109 0;
#X obj 133 99 expr ($f1+1)%2;
#X connect 0 0 1 0;
#X connect 1 0 5 0;
#X connect 2 0 4 0;
#X connect 3 0 4 1;
#X connect 3 0 8 0;
#X connect 4 0 5 0;
#X connect 6 0 7 0;
#X connect 7 0 8 0;
#X connect 7 0 4 1;
#X connect 8 0 1 1;
#X restore 65 165 pd gate;
#N canvas 710 249 343 341 majorScale 0;
#X msg 65 83 0;
#X msg 84 107 2;
#X msg 123 150 5;
#X msg 143 179 7;
#X msg 162 207 9;
#X msg 181 233 11;
#X msg 104 127 4;
#X obj 65 58 select 0 1 2 3 4 5 6;
#X obj 65 34 % 7;
#X obj 59 263 outlet;
#X obj 65 9 inlet;
#X connect 0 0 9 0;
#X connect 1 0 9 0;
#X connect 2 0 9 0;
#X connect 3 0 9 0;
#X connect 4 0 9 0;
#X connect 5 0 9 0;
#X connect 6 0 9 0;
#X connect 7 0 0 0;
#X connect 7 1 1 0;
#X connect 7 2 6 0;
#X connect 7 3 2 0;
#X connect 7 4 3 0;
#X connect 7 5 4 0;
#X connect 7 6 5 0;
#X connect 8 0 7 0;
#X connect 10 0 8 0;
#X restore 65 100 pd majorScale;
#X obj 65 53 inlet;
#X obj 65 197 outlet;
#X obj 111 141 inlet;
#X text 171 141 0 for major scale 1 for minor scale;
#X text 115 53 Input scale index 0-6;
#X text 123 199 Output chromatic scale index 0-11;
#X connect 0 0 1 1;
#X connect 1 0 4 0;
#X connect 2 0 1 0;
#X connect 3 0 2 0;
#X connect 3 0 0 0;
#X connect 5 0 1 2;
#X restore 52 159 pd scaleGate;
#X obj 133 133 tgl 15 0 empty empty empty 17 7 0 10 -262144 -1 -1 0
1;
#X floatatom 76 275 5 0 0 0 - - -, f 5;
#N canvas 698 210 450 300 applySettings 0;
#X obj 75 74 r octave;
#X obj 105 96 r rootNote;
#N canvas 145 224 450 300 offset 0;
#X obj 80 30 inlet;
#X obj 79 210 +;
#X obj 90 79 * 12;
#X obj 89 158 +;
#X obj 88 182 t b f;
#X obj 102 131 t b f;
#X obj 79 262 outlet;
#X obj 90 55 inlet;
#X obj 102 107 inlet;
#X text 132 27 Base value;
#X text 143 54 Octave;
#X text 151 108 Root note offset;
#X connect 0 0 1 0;
#X connect 1 0 6 0;
#X connect 2 0 3 0;
#X connect 3 0 4 0;
#X connect 4 0 1 0;
#X connect 4 1 1 1;
#X connect 5 0 3 0;
#X connect 5 1 3 1;
#X connect 7 0 2 0;
#X connect 8 0 5 0;
#X restore 45 122 pd offset;
#X obj 45 31 inlet;
#X obj 45 159 outlet;
#X connect 0 0 2 1;
#X connect 1 0 2 2;
#X connect 2 0 4 0;
#X connect 3 0 2 0;
#X restore 53 317 pd applySettings;
#X floatatom 71 363 5 0 0 0 - - -, f 5;
#X obj 55 403 outlet;
#X floatatom 85 99 5 0 0 0 - - -, f 5;
#X connect 0 0 4 0;
#X connect 0 0 1 0;
#X connect 0 0 10 0;
#X connect 1 0 3 0;
#X connect 2 0 6 0;
#X connect 3 0 2 0;
#X connect 3 1 2 1;
#X connect 4 0 2 0;
#X connect 4 0 7 0;
#X connect 5 0 4 1;
#X connect 7 0 8 0;
#X connect 7 0 9 0;
#X restore 23 147 pd noteMapping;
#N canvas 599 168 450 300 timbreMapping 0;
#X obj 82 77 r timbre;
#X obj 82 99 unpack f f;
#X obj 82 125 expr ($f1*24)+6;
#X obj 81 146 s timbreWidth;
#X obj 150 202 s timbreCutoff;
#X text 84 40 Map X value to timbre width Map Y value to timbre cutoff
;
#X text 208 120 6 - 30;
#X text 306 178 2500 - 5500;
#X obj 151 178 expr ($f1*3000)+2500;
#X connect 0 0 1 0;
#X connect 1 0 2 0;
#X connect 1 1 8 0;
#X connect 2 0 3 0;
#X connect 8 0 4 0;
#X restore 134 45 pd timbreMapping;
#N canvas 191 337 345 295 setGUIdefaults 1;
#X obj 29 44 loadbang;
#X msg 29 66 list /octaveSlider 5;
#X obj 31 164 send toGUI;
#X msg 37 90 list /rootNoteSlider 0;
#X text 28 18 Set GUI defaults;
#X text 210 88 Root note C;
#X text 209 64 Fifth octave;
#X msg 45 124 list /tempoSlider 0;
#X connect 0 0 1 0;
#X connect 0 0 3 0;
#X connect 0 0 7 0;
#X connect 1 0 2 0;
#X connect 3 0 2 0;
#X connect 7 0 2 0;
#X restore 34 105 pd setGUIdefaults;
#X obj 383 85 r f0;
#X obj 418 85 r f1;
#X obj 453 85 r f2;
#X obj 488 85 r f3;
#X obj 523 85 r f4;
#X obj 558 85 r f5;
#X obj 593 85 r f6;
#X obj 628 85 r f7;
#X obj 389 172 vradio 15 1 0 7 empty empty empty 0 -8 0 10 -262144
-1 -1 0;
#X obj 407 172 vradio 15 1 0 7 empty empty empty 0 -8 0 10 -262144
-1 -1 2;
#X obj 425 172 vradio 15 1 0 7 empty empty empty 0 -8 0 10 -262144
-1 -1 1;
#X obj 443 172 vradio 15 1 0 7 empty empty empty 0 -8 0 10 -262144
-1 -1 2;
#X obj 461 172 vradio 15 1 0 7 empty empty empty 0 -8 0 10 -262144
-1 -1 1;
#X obj 479 172 vradio 15 1 0 7 empty empty empty 0 -8 0 10 -262144
-1 -1 2;
#X obj 497 172 vradio 15 1 0 7 empty empty empty 0 -8 0 10 -262144
-1 -1 4;
#X obj 515 172 vradio 15 1 0 7 empty empty empty 0 -8 0 10 -262144
-1 -1 2;
#X connect 3 0 7 0;
#X connect 4 0 10 0;
#X connect 6 0 8 0;
#X connect 6 1 8 1;
#X connect 6 2 8 2;
#X connect 7 0 0 0;
#X connect 7 0 0 1;
#X connect 8 0 7 1;
#X connect 10 0 3 0;
#X connect 13 0 21 0;
#X connect 14 0 22 0;
#X connect 15 0 23 0;
#X connect 16 0 24 0;
#X connect 17 0 25 0;
#X connect 18 0 26 0;
#X connect 19 0 27 0;
#X connect 20 0 28 0;
