#N canvas 265 60 1002 553 10;
#X obj 363 77 route list;
#X obj 363 45 receive fromSystem;
#X obj 24 239 dac~;
#X obj 226 219 tgl 15 0 empty empty empty 17 7 0 10 -262144 -1 -1 0
1;
#X obj 227 314 send toSystem;
#X text 251 216 turn iphone camera flash on/off;
#X msg 227 239 list /flash \$1;
#X obj 364 101 route /tilts /shake;
#X msg 255 284 list /setPage 2;
#X text 257 263 scroll interface to third page;
#N canvas 591 50 426 198 GUI_input 0;
#X obj 19 16 receive fromGUI;
#X obj 19 44 route list;
#X obj 19 70 route /noteMultiSlider /drumGrid /tempoSlider;
#X obj 227 102 s tempo;
#X obj 123 103 s drumGrid;
#X obj 19 102 s noteGrid;
#X connect 0 0 1 0;
#X connect 1 0 2 0;
#X connect 2 0 5 0;
#X connect 2 1 4 0;
#X connect 2 2 3 0;
#X restore 30 38 pd GUI_input;
#N canvas 791 203 450 300 GUI_output 0;
#X msg 39 115 list /noteGrid;
#X restore 191 125 pd GUI_output;
#N canvas 712 208 450 300 sound_generation 0;
#X obj 57 170 osc~;
#X obj 57 142 mtof;
#X obj 57 252 outlet~;
#X obj 58 62 * 24;
#X obj 58 86 + 60;
#X obj 57 114 int;
#X obj 55 18 inlet;
#X obj 58 205 *~;
#X msg 129 71 1 50 \, 0 200 50;
#X obj 130 117 vline~;
#X connect 0 0 7 0;
#X connect 1 0 0 0;
#X connect 3 0 4 0;
#X connect 4 0 5 0;
#X connect 5 0 1 0;
#X connect 6 0 3 0;
#X connect 6 0 8 0;
#X connect 7 0 2 0;
#X connect 8 0 9 0;
#X connect 9 0 7 1;
#X restore 24 109 pd sound_generation;
#N canvas 74 57 450 484 sequencer 1;
#X obj 41 79 route 0 1 2 3 4 5 6 7;
#X obj 41 150 vsl 15 128 0 1 0 0 empty empty empty 0 -9 0 10 -262144
-1 -1 3233 1;
#X obj 59 150 vsl 15 128 0 1 0 0 empty empty empty 0 -9 0 10 -262144
-1 -1 6639 1;
#X obj 77 150 vsl 15 128 0 1 0 0 empty empty empty 0 -9 0 10 -262144
-1 -1 2713 1;
#X obj 95 150 vsl 15 128 0 1 0 0 empty empty empty 0 -9 0 10 -262144
-1 -1 6754 1;
#X obj 113 150 vsl 15 128 0 1 0 0 empty empty empty 0 -9 0 10 -262144
-1 -1 9583 1;
#X obj 131 150 vsl 15 128 0 1 0 0 empty empty empty 0 -9 0 10 -262144
-1 -1 7966 1;
#X obj 149 150 vsl 15 128 0 1 0 0 empty empty empty 0 -9 0 10 -262144
-1 -1 3464 1;
#X obj 167 150 vsl 15 128 0 1 0 0 empty empty empty 0 -9 0 10 -262144
-1 -1 6985 1;
#X obj 34 465 outlet;
#X obj 35 414 f 0;
#X obj 63 414 f 0;
#X obj 91 414 f 0;
#X obj 119 415 f 0;
#X obj 146 414 f 0;
#X obj 174 414 f 0;
#X obj 202 414 f 0;
#X obj 230 414 f 0;
#X obj 41 43 r noteGrid;
#X obj 262 371 r t6;
#X obj 300 371 r t7;
#X obj 33 371 r t0;
#X obj 70 371 r t1;
#X obj 111 370 r t2;
#X obj 152 369 r t3;
#X obj 190 370 r t4;
#X obj 226 370 r t5;
#X connect 0 0 1 0;
#X connect 0 1 2 0;
#X connect 0 2 3 0;
#X connect 0 3 4 0;
#X connect 0 4 5 0;
#X connect 0 5 6 0;
#X connect 0 6 7 0;
#X connect 0 7 8 0;
#X connect 1 0 10 1;
#X connect 2 0 11 1;
#X connect 3 0 12 1;
#X connect 4 0 13 1;
#X connect 5 0 14 1;
#X connect 6 0 15 1;
#X connect 7 0 16 1;
#X connect 8 0 17 1;
#X connect 10 0 9 0;
#X connect 11 0 9 0;
#X connect 12 0 9 0;
#X connect 13 0 9 0;
#X connect 14 0 9 0;
#X connect 15 0 9 0;
#X connect 16 0 9 0;
#X connect 17 0 9 0;
#X connect 18 0 0 0;
#X connect 19 0 16 0;
#X connect 20 0 17 0;
#X connect 21 0 10 0;
#X connect 22 0 11 0;
#X connect 23 0 12 0;
#X connect 24 0 13 0;
#X connect 25 0 14 0;
#X connect 26 0 15 0;
#X restore 24 86 pd sequencer;
#N canvas 479 93 450 300 tempo 1;
#X obj 99 176 snapshot~;
#X obj 178 148 metro 50;
#X obj 168 115 tgl 15 0 empty empty empty 17 7 0 10 -262144 -1 -1 1
1;
#X obj 192 109 loadbang;
#X obj 99 198 * 8;
#X obj 98 68 * 10;
#X obj 98 92 + 1;
#X obj 98 123 / 8;
#X obj 99 308 select 0 1 2 3 4 5 6 7;
#X obj 100 334 bng 15 250 50 0 empty empty empty 17 7 0 10 -262144
-1 -1;
#X obj 118 334 bng 15 250 50 0 empty empty empty 17 7 0 10 -262144
-1 -1;
#X obj 136 334 bng 15 250 50 0 empty empty empty 17 7 0 10 -262144
-1 -1;
#X obj 154 334 bng 15 250 50 0 empty empty empty 17 7 0 10 -262144
-1 -1;
#X obj 172 334 bng 15 250 50 0 empty empty empty 17 7 0 10 -262144
-1 -1;
#X obj 190 334 bng 15 250 50 0 empty empty empty 17 7 0 10 -262144
-1 -1;
#X obj 208 334 bng 15 250 50 0 empty empty empty 17 7 0 10 -262144
-1 -1;
#X obj 226 334 bng 15 250 50 0 empty empty empty 17 7 0 10 -262144
-1 -1;
#X obj 100 279 spigot;
#X obj 139 247 !=;
#X obj 182 246 f;
#X obj 100 250 f;
#X obj 99 224 int 1;
#X obj 182 200 loadbang;
#X obj 98 149 phasor~ 1;
#X obj 46 393 s t0;
#X obj 84 393 s t1;
#X obj 121 393 s t2;
#X obj 158 393 s t3;
#X obj 195 393 s t4;
#X obj 231 393 s t5;
#X obj 267 393 s t6;
#X obj 303 393 s t7;
#X obj 98 38 r tempo;
#X connect 0 0 4 0;
#X connect 1 0 0 0;
#X connect 2 0 1 0;
#X connect 3 0 1 0;
#X connect 4 0 21 0;
#X connect 5 0 6 0;
#X connect 6 0 7 0;
#X connect 7 0 23 0;
#X connect 8 0 9 0;
#X connect 8 1 10 0;
#X connect 8 2 11 0;
#X connect 8 3 12 0;
#X connect 8 4 13 0;
#X connect 8 5 14 0;
#X connect 8 6 15 0;
#X connect 8 7 16 0;
#X connect 9 0 24 0;
#X connect 10 0 25 0;
#X connect 11 0 26 0;
#X connect 12 0 27 0;
#X connect 13 0 28 0;
#X connect 14 0 29 0;
#X connect 15 0 30 0;
#X connect 16 0 31 0;
#X connect 17 0 19 0;
#X connect 17 0 8 0;
#X connect 18 0 17 1;
#X connect 19 0 18 1;
#X connect 20 0 18 0;
#X connect 20 0 17 0;
#X connect 21 0 20 0;
#X connect 22 0 21 0;
#X connect 23 0 0 0;
#X connect 32 0 5 0;
#X restore 166 86 pd tempo;
#N canvas 683 0 667 669 drums 0;
#X obj 38 30 r drumGrid;
#X obj 38 61 route 0 1 2 3 4 5 6 7;
#X obj 38 127 route 0 1 2;
#X obj 56 147 route 0 1 2;
#X obj 74 167 route 0 1 2;
#X obj 92 187 route 0 1 2;
#X obj 110 207 route 0 1 2;
#X obj 128 227 route 0 1 2;
#X obj 146 247 route 0 1 2;
#X obj 164 267 route 0 1 2;
#N canvas 0 50 450 250 (subpatch) 0;
#X array drum1 8 float 1;
#A 0 0 0 0 0 0 0 0 0;
#X coords 0 1.5 7 -0.5 200 140 1 0 0;
#X restore 334 50 graph;
#X obj 54 419 tabwrite drum1;
#X msg 38 247 0;
#X obj 51 305 unpack f f f;
#X obj 168 366 t f b;
#X floatatom 70 345 5 0 0 0 - - -, f 5;
#X floatatom 114 345 5 0 0 0 - - -, f 5;
#X floatatom 162 345 5 0 0 0 - - -, f 5;
#X connect 0 0 1 0;
#X connect 0 0 13 0;
#X connect 1 0 2 0;
#X connect 1 1 3 0;
#X connect 1 2 4 0;
#X connect 1 3 5 0;
#X connect 1 4 6 0;
#X connect 1 5 7 0;
#X connect 1 6 8 0;
#X connect 1 7 9 0;
#X connect 13 0 15 0;
#X connect 13 0 11 1;
#X connect 13 1 16 0;
#X connect 13 2 17 0;
#X connect 13 2 11 0;
#X restore 121 180 pd drums;
#X connect 0 0 7 0;
#X connect 1 0 0 0;
#X connect 3 0 6 0;
#X connect 6 0 4 0;
#X connect 8 0 4 0;
#X connect 12 0 2 0;
#X connect 12 0 2 1;
#X connect 13 0 12 0;
